PathFileType	4	(X/Y/Z)	./resultDataOpenSim/trcMotMarkerGrf/sub10/qtm-12-02.trc
DataRate	CameraRate	NumFrames	NumMarkers	Units	OrigDataRate	OrigDataStartFrame	OrigNumFrames
250.000000	250.000000	6	24	m	250.000000	346	461
Frame#	Time	L.Toe.Tip			R.Toe.Tip			L.Ankle.Lat			R.Ankle.Lat			L.Ankle.Med			R.Ankle.Med			L.Heel			R.Heel			L.Knee.Lat			R.Knee.Lat			L.Knee.Med			R.Knee.Med			L.Thigh.Upper			R.Thigh.Upper			L.ASIS			R.ASIS			V.Sacral			L.Acromium			R.Acromium			C7			L.Elbow			R.Elbow			L.Wrist.Lat			R.Wrist.Lat
		X1	Y1	Z1	X2	Y2	Z2	X3	Y3	Z3	X4	Y4	Z4	X5	Y5	Z5	X6	Y6	Z6	X7	Y7	Z7	X8	Y8	Z8	X9	Y9	Z9	X10	Y10	Z10	X11	Y11	Z11	X12	Y12	Z12	X13	Y13	Z13	X14	Y14	Z14	X15	Y15	Z15	X16	Y16	Z16	X17	Y17	Z17	X18	Y18	Z18	X19	Y19	Z19	X20	Y20	Z20	X21	Y21	Z21	X22	Y22	Z22	X23	Y23	Z23	X24	Y24	Z24

346	1.38	0.84225426	0.066062633	-0.17338413	0.85794673	0.038006631	0.069826787	0.74033255	0.15356381	-0.19764768	0.71717942	0.061377807	0.11861276	0.75896214	0.16315851	-0.11325166	0.73327395	0.082900685	0.032067169	0.66796707	0.15010997	-0.15553304	0.66397299	0.037480028	0.077404117	0.94673366	0.47444696	-0.18363645	0.8151303	0.4517183	0.12894076	0.96004598	0.44546701	-0.065316729	0.81715549	0.45281258	0.0013217281	0.82687134	0.84139734	-0.21557126	0.82390831	0.87124054	0.16471747	0.88121841	0.95506976	-0.14923004	0.89726916	0.96218857	0.091149972	0.69317286	0.9773572	-0.02407272	0.83794466	1.440997	-0.16160418	0.82559705	1.4272181	0.1532937	0.75533728	1.4604854	-0.0076699192	0.70365413	1.1300781	-0.23657047	0.72153572	1.0905427	0.23403919	0.79917886	0.91285333	-0.29656212	0.90617932	0.95020926	0.33024846
347	1.384	0.86202822	0.064817668	-0.17352673	0.85798785	0.037997102	0.069821316	0.75756968	0.14932266	-0.198028	0.71691489	0.061671677	0.11843917	0.77569271	0.15957633	-0.11349567	0.7334538	0.083227007	0.031891054	0.68529254	0.14399828	-0.15592359	0.66395185	0.037762217	0.077046237	0.95631484	0.47560735	-0.18355741	0.8161665	0.4518582	0.12915149	0.9702481	0.44686095	-0.065497278	0.81838746	0.45279446	0.0013838438	0.83449734	0.84192545	-0.21629439	0.82840151	0.87151403	0.16418462	0.88763301	0.95539272	-0.149146	0.90200064	0.96225811	0.091286738	0.69873747	0.97747335	-0.025749332	0.84392896	1.4408626	-0.16187388	0.83140313	1.4272681	0.15306069	0.7612881	1.4605432	-0.0078908884	0.70785992	1.1309556	-0.23651323	0.72917955	1.0896017	0.23455789	0.79988222	0.91247187	-0.29681984	0.91825591	0.95257738	0.32849439
348	1.388	0.88197114	0.063681798	-0.17362478	0.85794075	0.037976304	0.069831064	0.77490684	0.14511518	-0.1983438	0.7167612	0.061918546	0.1181903	0.79259806	0.15599605	-0.11369689	0.73363627	0.083555577	0.031681282	0.70281731	0.13786503	-0.15617924	0.66391603	0.038046591	0.076613726	0.96563456	0.47668163	-0.18350616	0.81711696	0.45196696	0.12931716	0.98019863	0.44818257	-0.065550443	0.81984854	0.45271936	0.0015406578	0.84202944	0.84238462	-0.21697619	0.83265998	0.87168824	0.16371321	0.89403681	0.95566841	-0.14910179	0.90672719	0.96227276	0.091428143	0.70432756	0.97749736	-0.027387115	0.84991822	1.4406544	-0.16213837	0.83720737	1.4272654	0.15283582	0.76722952	1.460529	-0.0081251688	0.71208929	1.1317694	-0.23647194	0.73689074	1.0886768	0.23486543	0.80063401	0.91209598	-0.29709225	0.9302242	0.95500565	0.3267439
349	1.392	0.90194559	0.062655	-0.17367186	0.85784624	0.037962287	0.069851403	0.79236439	0.14095452	-0.19859828	0.71669455	0.062130741	0.11786296	0.80961832	0.1524392	-0.11385269	0.73382674	0.083873596	0.031423893	0.72043036	0.13175572	-0.15632332	0.66389391	0.038335321	0.076110251	0.97477304	0.47767741	-0.18343903	0.81799691	0.45206289	0.12944878	0.98985486	0.44946094	-0.065456507	0.82141577	0.45259556	0.0017318421	0.84944059	0.84276705	-0.21759402	0.83665726	0.87174326	0.16328958	0.9004354	0.95589558	-0.14909409	0.91145478	0.96223568	0.091575294	0.70993067	0.97743694	-0.029004226	0.85591608	1.4403741	-0.16240468	0.84301083	1.4272122	0.15261375	0.7731543	1.4604441	-0.008383392	0.71634996	1.1325176	-0.2364536	0.74478806	1.0877733	0.23531333	0.80143826	0.91172514	-0.29736787	0.94208532	0.95748646	0.32498796
350	1.396	0.92182751	0.061726122	-0.17370646	0.85775381	0.037970252	0.069873908	0.80996113	0.13683279	-0.1988018	0.71657278	0.062356017	0.11750829	0.82668836	0.14889738	-0.11400443	0.73401133	0.084183797	0.031113178	0.73817535	0.12570381	-0.15642668	0.66393373	0.038626467	0.075594312	0.98380455	0.47859636	-0.18335078	0.81886483	0.45216175	0.12954819	0.99927375	0.45067811	-0.065327159	0.82291505	0.452432	0.001898479	0.85677505	0.84308017	-0.21816782	0.84060579	0.87172476	0.16288704	0.90682707	0.95606637	-0.14911916	0.9161858	0.96214683	0.091724689	0.71552618	0.97730138	-0.030596683	0.86191596	1.4400215	-0.16268473	0.84880785	1.4271045	0.15239403	0.77905489	1.4602855	-0.0086649221	0.72064971	1.1331997	-0.23645874	0.75290421	1.0868476	0.23600699	0.80229781	0.91135901	-0.29764484	0.95384653	0.95999975	0.32321549
351	1.4	0.94158437	0.060883742	-0.17377274	0.85768219	0.037989687	0.069886092	0.82770318	0.13274107	-0.19896112	0.71635279	0.062609568	0.11714212	0.84374218	0.14528604	-0.11427899	0.73414607	0.084494458	0.030748408	0.75612801	0.11973195	-0.15651396	0.66407866	0.038901144	0.07516379	0.99273946	0.47942982	-0.18329216	0.81978808	0.45225609	0.12960724	1.008397	0.45178128	-0.065287349	0.82430887	0.45222515	0.0020426833	0.86410998	0.84334022	-0.21873597	0.84465901	0.87166848	0.16248794	0.91321919	0.95617787	-0.14917695	0.92091839	0.96200151	0.091871098	0.7211015	0.97709353	-0.032147121	0.86790863	1.4395968	-0.16297772	0.85459097	1.4269373	0.15217844	0.78493187	1.4600545	-0.0089562253	0.72498998	1.1338187	-0.23648549	0.76117615	1.0858765	0.23682522	0.80322226	0.91099627	-0.29793567	0.96551048	0.96252361	0.321422
